<svg width="320" height="320" xmlns="http://www.w3.org/2000/svg" viewBox="0 0 517.4 242.2">
  <g class="layer">
    <path fill="#fff"
      d="M.8 241.3h67.3l39.4-38.7h126.4l16.4-31h113.1l6.4-24H428l2.7-18.9-83.6-.4-5.8 23.6H230.1l-16.6 29.3H89.4l-37.5 32.4H24.8" />
    <path fill="#242424"
      d="M68 242.2H.8l-.6-.3a.8.8 0 0 1 0-1.2l.6-.2h67L107 202c.1-.2.3-.3.6-.3h126l16-30.5.3-.4.4-.1h112.5l6.1-23.3c0-.2.2-.4.3-.5l.5-.2h57.6l2.5-17.2-82-.5-5.6 23c0 .2-.1.3-.3.5l-.5.2H230.5l-16.3 28.9-.3.3-.4.1H89.7l-37.3 32.2a1 1 0 0 1-.5.2H24.7a.8.8 0 0 1-.8-.8c0-.3.1-.5.3-.6.1-.2.3-.3.5-.3h26.9l37.2-32 .6-.2H213l16.3-29a.8.8 0 0 1 .7-.4h110.8l5.6-23 .3-.4.5-.2 83.6.5h.4l.3.3a1 1 0 0 1 .1.6l-2.7 19-.3.4c-.1.2-.3.2-.5.2h-57.8l-6.1 23.4a.8.8 0 0 1-.8.6H250.8L234.7 203l-.3.3a1 1 0 0 1-.5.1H108L68.5 242l-.2.1H68z" />
    <path fill="#DBDBDB"
      d="M58.3 228h-5l-.6-.3a.8.8 0 0 1-.2-.6.8.8 0 0 1 .8-.8h5a.8.8 0 0 1 .8.8c0 .3 0 .5-.2.6l-.6.3zm-10 0h-5l-.6-.3a.8.8 0 0 1-.2-.6.8.8 0 0 1 .8-.8h5c.2 0 .4 0 .6.2l.2.6c0 .3 0 .5-.2.6l-.6.3zm-10 0h-5l-.6-.3a.8.8 0 0 1-.2-.6.8.8 0 0 1 .8-.8h5c.2 0 .4 0 .6.2l.2.6c0 .3 0 .5-.2.6l-.6.3zm-10 0h-5l-.6-.3a.8.8 0 0 1-.2-.6.8.8 0 0 1 .8-.8h5c.2 0 .4 0 .6.2l.2.6c0 .3 0 .5-.2.6l-.6.3zm35-.2H63a.9.9 0 0 1-.5-.5.9.9 0 0 1 .2-1l3.6-3.3.3-.2h.7l.3.2.1.3v.7l-.2.2-3.7 3.4-.6.2h.1zm7.3-6.8a.9.9 0 0 1-.8-.5v-.7l.2-.2 3.7-3.4.3-.1h.6l.3.2.2.3v.6l-.3.3-3.6 3.3-.6.2zm7.4-6.8h-.4a.8.8 0 0 1-.2-.2.8.8 0 0 1-.3-.6c0-.3.1-.5.3-.6l3.6-3.4.6-.2a.8.8 0 0 1 .9.8l-.1.4-.2.2-3.7 3.4-.2.2h-.4zm7.3-6.8H85a.7.7 0 0 1-.3-.2l-.2-.3v-.6l.2-.3 3.7-3.3.2-.2a.9.9 0 0 1 1 .2l.1.2.1.4v.3l-.3.2-3.6 3.4-.6.2zm7.3-6.7-.4-.2a.8.8 0 0 1-.3-.9c0-.1 0-.3.2-.4l3.7-3.3.2-.2h.4a.9.9 0 0 1 .5.2c.2.1.3.3.3.6l-.3.6-3.6 3.3-.3.2h-.4zm7.4-6.8a1 1 0 0 1-.3-.1l-.3-.2a.9.9 0 0 1-.3-.6l.3-.6 1.4-1.3.5-.2h3.1a.8.8 0 0 1 .9.9c0 .2-.1.4-.3.5-.1.2-.3.3-.6.3h-2.7l-1.2 1c-.1.2-.3.3-.6.3h.1zm124-1.3h-4.5l-.6-.3a.8.8 0 0 1-.2-.6c0-.2 0-.4.2-.5l.6-.3h4l.3-.3.3-.1h.7l.2.3.1.3v.4l-.1.3-.3.4a.8.8 0 0 1-.7.4zm-9.5 0h-5l-.6-.3a.8.8 0 0 1-.2-.6c0-.2 0-.4.2-.5l.6-.3h5a.8.8 0 0 1 .8.8c0 .3 0 .5-.2.6l-.6.3zm-10 0h-5l-.6-.3a.8.8 0 0 1-.2-.6c0-.2 0-.4.2-.5l.6-.3h5a.8.8 0 0 1 .8.8c0 .3 0 .5-.2.6l-.6.3zm-10 0h-5l-.6-.3a.8.8 0 0 1-.2-.6c0-.2 0-.4.2-.5l.6-.3h5a.8.8 0 0 1 .8.8c0 .3 0 .5-.2.6l-.6.3zm-10 0h-5l-.6-.3a.8.8 0 0 1-.2-.6c0-.2 0-.4.2-.5l.6-.3h5a.8.8 0 0 1 .8.8c0 .3 0 .5-.2.6l-.6.3zm-10 0h-5l-.6-.3a.8.8 0 0 1-.2-.6c0-.2 0-.4.2-.5l.6-.3h5a.8.8 0 0 1 .8.8c0 .3 0 .5-.2.6l-.6.3zm-10 0h-5l-.6-.3a.8.8 0 0 1-.2-.6c0-.2 0-.4.2-.5l.6-.3h5a.8.8 0 0 1 .8.8c0 .3 0 .5-.2.6l-.6.3zm-10 0h-5l-.6-.3a.8.8 0 0 1-.2-.6c0-.2 0-.4.2-.5l.6-.3h5a.8.8 0 0 1 .8.8c0 .3 0 .5-.2.6l-.6.3zm-10 0h-5l-.6-.3a.8.8 0 0 1-.2-.6c0-.2 0-.4.2-.5l.6-.3h5a.8.8 0 0 1 .8.8c0 .3 0 .5-.2.6l-.6.3zm-10 0h-5l-.6-.3a.8.8 0 0 1-.2-.6c0-.2 0-.4.2-.5l.6-.3h5a.8.8 0 0 1 .8.8c0 .3 0 .5-.2.6l-.6.3zm-10 0h-5l-.6-.3a.8.8 0 0 1-.2-.6c0-.2 0-.4.2-.5l.6-.3h5a.8.8 0 0 1 .8.8c0 .3 0 .5-.2.6l-.6.3zm-10 0h-5l-.6-.3a.8.8 0 0 1-.2-.6c0-.2 0-.4.2-.5l.6-.3h5a.8.8 0 0 1 .8.8c0 .3 0 .5-.2.6l-.6.3zm112.3-4.7-.4-.1a.9.9 0 0 1-.4-.6v-.6l2.6-4.3.2-.3h.3l.3-.1.3.1.3.2.1.3v.6l-2.6 4.4-.3.3h-.5zm5-8.7a1 1 0 0 1-.5 0 .8.8 0 0 1-.3-.6v-.6l2.6-4.3.2-.3.3-.1h.6l.4.6v.6l-2.6 4.3-.3.3-.4.1zm5-8.6-.4-.1a.9.9 0 0 1-.4-.5v-.7l2.6-4.3a.8.8 0 0 1 1.1-.2c.2 0 .4.3.4.5v.6l-2.5 4.3a.8.8 0 0 1-.8.4zm111-7.1h-5c-.3 0-.5 0-.7-.3a.8.8 0 0 1 0-1.1l.6-.3h5l.6.3c.2.1.2.3.2.6 0 .2 0 .4-.2.5-.1.2-.3.3-.6.3zm-10 0h-5c-.3 0-.5 0-.7-.3a.8.8 0 0 1 0-1.1l.6-.3h5l.6.3c.2.1.2.3.2.6 0 .2 0 .4-.2.5-.1.2-.3.3-.6.3zm-10 0h-5c-.3 0-.5 0-.7-.3a.8.8 0 0 1 0-1.1l.6-.3h5l.6.3c.2.1.2.3.2.6 0 .2 0 .4-.2.5-.1.2-.3.3-.6.3zm-10 0h-5c-.3 0-.5 0-.7-.3a.8.8 0 0 1 0-1.1l.6-.3h5l.6.3c.2.1.2.3.2.6 0 .2 0 .4-.2.5-.1.2-.3.3-.6.3zm-10 0h-5c-.3 0-.5 0-.7-.3a.8.8 0 0 1 0-1.1l.6-.3h5l.6.3c.2.1.2.3.2.6 0 .2 0 .4-.2.5-.1.2-.3.3-.6.3zm-10 0h-5c-.3 0-.5 0-.7-.3a.8.8 0 0 1 0-1.1l.6-.3h5l.6.3c.2.1.2.3.2.6 0 .2 0 .4-.2.5-.1.2-.3.3-.6.3zm-10 0h-5c-.3 0-.5 0-.7-.3a.8.8 0 0 1 0-1.1l.6-.3h5l.6.3c.2.1.2.3.2.6 0 .2 0 .4-.2.5-.1.2-.3.3-.6.3zm-10 0h-5c-.3 0-.5 0-.7-.3a.8.8 0 0 1 0-1.1l.6-.3h5l.6.3c.2.1.2.3.2.6 0 .2 0 .4-.2.5-.1.2-.3.3-.6.3zm-10 0h-5c-.3 0-.5 0-.7-.3a.8.8 0 0 1 0-1.1l.6-.3h5l.6.3c.2.1.2.3.2.6 0 .2 0 .4-.2.5-.1.2-.3.3-.6.3zm-10 0h-5c-.3 0-.5 0-.7-.3a.8.8 0 0 1 0-1.1l.6-.3h5l.6.3c.2.1.2.3.2.6 0 .2 0 .4-.2.5-.1.2-.3.3-.6.3zm-10 0h-5c-.3 0-.5 0-.7-.3a.8.8 0 0 1 0-1.1l.6-.3h5l.6.3c.2.1.2.3.2.6 0 .2 0 .4-.2.5-.1.2-.3.3-.6.3zm103.1-2.3h-.2s-.2 0-.3-.2l-.2-.2a.9.9 0 0 1 0-.6l1.2-4.9c0-.2.2-.4.4-.5h.7c.2 0 .4.1.5.3v.7l-1.2 4.8c0 .2-.2.3-.3.4l-.5.2zm2.6-9.7h-.2a.8.8 0 0 1-.5-.4.9.9 0 0 1-.1-.6l1.3-4.8c0-.3.2-.5.4-.6h.6l.6.3v.7l-1.2 4.8c0 .2-.2.3-.4.5l-.5.1zm2.6-9.6h-.2a1 1 0 0 1-.3-.2l-.2-.2-.2-.3v-.4l.6-2a.8.8 0 0 1 .8-.6h2.9c.2 0 .4 0 .6.2l.2.6a.8.8 0 0 1-.8.8h-2.2l-.4 1.5-.3.4-.5.2zm73.3-2.1h-5a.8.8 0 0 1-.8-.8c0-.3 0-.5.2-.6l.6-.3h5l.6.3.2.6c0 .2 0 .4-.2.6l-.6.2zm-10 0h-5a.8.8 0 0 1-.8-.8c0-.3 0-.5.2-.6l.6-.3h5l.6.3.2.6c0 .2 0 .4-.2.6l-.6.2zm-10 0h-5a.8.8 0 0 1-.8-.8c0-.3 0-.5.2-.6l.6-.3h5l.6.3.2.6c0 .2 0 .4-.2.6l-.6.2zm-10 0h-5a.8.8 0 0 1-.8-.8c0-.3 0-.5.2-.6l.6-.3h5l.6.3.2.6c0 .2 0 .4-.2.6l-.6.2zm-10 0h-5a.8.8 0 0 1-.8-.8c0-.3 0-.5.2-.6l.6-.3h5l.6.3.2.6c0 .2 0 .4-.2.6l-.6.2zm-10 0h-5a.8.8 0 0 1-.8-.8c0-.3 0-.5.2-.6l.6-.3h5l.6.3.2.6c0 .2 0 .4-.2.6l-.6.2zm-10 0h-5a.8.8 0 0 1-.8-.8c0-.3 0-.5.2-.6l.6-.3h5l.6.3.2.6c0 .2 0 .4-.2.6l-.6.2z" />
    <path fill="#fff" d="m407.6 122 23.2 40.6 85.7-4.8-32.7-34.3-76.2-1.6z" />
    <path fill="#242424"
      d="M430.8 163.5a.8.8 0 0 1-.7-.4l-23.3-40.7a.8.8 0 0 1 0-.9l.3-.3.4-.1 76.3 1.7h.3l.2.2 32.7 34.3a.8.8 0 0 1 .2.9l-.3.3-.4.2-85.7 4.8zM409 122.8l22.3 39 83.3-4.7-31.2-32.7-74.4-1.6z" />
    <path fill="#fff" d="M407.6 87.8v34.1l23.2 40.7h85.7v-34.3l-109-40.5z" />
    <path fill="#242424"
      d="M516.5 163.5h-85.7a.8.8 0 0 1-.7-.4l-23.3-40.7-.1-.5V87.4l.3-.3.4-.1h.4l108.9 40.5.4.3.1.5v34.3c0 .2 0 .4-.2.6-.1.1-.3.3-.5.3zm-85.2-1.7h84.3v-33L408.4 89v32.8l22.9 40z" />
    <path fill="#fff" d="m407.6 87.8 24.2 40.5h84.7l-30-40.5h-79z" />
    <path fill="#242424"
      d="M516.5 129.1h-84.7l-.4-.1a.9.9 0 0 1-.3-.3l-24.3-40.5a.8.8 0 0 1 .3-1.1l.4-.2h79a.8.8 0 0 1 .7.4l30 40.5.1.4v.4l-.4.4-.4.1zm-84.2-1.7h82.5l-28.7-38.8h-77l23.2 38.8z" />
    <path fill="#242424"
      d="m430.8 163.5-.3-.1a.8.8 0 0 1-.3-.2l-.1-.3-.1-.3 1-34.3c0-.3.1-.5.3-.6.1-.2.3-.3.5-.3.3 0 .5.1.6.3.2.2.2.4.2.6l-1 34.4v.3a.8.8 0 0 1-.8.5zM54.5 224.2l-.6-.3a.8.8 0 0 1-.2-.6v-33.9a.8.8 0 0 1 .8-.8c.2 0 .5 0 .6.2l.3.6v34l-.3.5c-.1.2-.4.3-.6.3z" />
    <path fill="#242424" d="M54.5 228a4.7 4.7 0 1 0 0-9.4 4.7 4.7 0 0 0 0 9.5z" />
    <path fill="#242424"
      d="M54.5 228.9a5.6 5.6 0 0 1-4-9.5 5.5 5.5 0 0 1 6.1-1.2 5.6 5.6 0 0 1 3.5 5.1 5.6 5.6 0 0 1-5.6 5.6zm0-9.5a4 4 0 0 0-3.6 2.4A3.9 3.9 0 0 0 56 227a4 4 0 0 0 1.3-6.4 3.9 3.9 0 0 0-2.8-1z" />
    <path fill="#85C241" d="M54.5 192.9a36.7 36.7 0 1 0 0-73.5 36.7 36.7 0 0 0 0 73.5z" />
    <path fill="#242424"
      d="M204.2 191.5a.8.8 0 0 1-.9-.8v-34l.3-.5c.1-.2.3-.2.6-.2.2 0 .4 0 .5.2l.3.6v33.9l-.3.6-.5.2z" />
    <path fill="#242424" d="M204.2 195.4a4.7 4.7 0 1 0 0-9.5 4.7 4.7 0 0 0 0 9.5z" />
    <path fill="#242424"
      d="M204.2 196.2a5.6 5.6 0 1 1 0-11 5.6 5.6 0 0 1 0 11zm0-9.4a3.9 3.9 0 1 0 0 7.8 3.9 3.9 0 0 0 0-7.8z" />
    <path fill="#85C241" d="M204.2 160.2a36.7 36.7 0 1 0 0-73.4 36.7 36.7 0 0 0 0 73.4z" />
    <path fill="#242424"
      d="M324.2 161.5c-.2 0-.4 0-.6-.2a.8.8 0 0 1-.2-.6v-33.9c0-.2 0-.4.2-.6a.8.8 0 0 1 1.2 0c.2.2.2.4.2.6v33.9a.9.9 0 0 1-.2.6l-.3.2h-.3z" />
    <path fill="#242424" d="M324.2 165.4a4.7 4.7 0 1 0 0-9.4 4.7 4.7 0 0 0 0 9.4z" />
    <path fill="#242424"
      d="M324.2 166.3a5.5 5.5 0 0 1-5.4-6.7 5.5 5.5 0 0 1 4.3-4.4 5.5 5.5 0 0 1 5 9.4c-1 1-2.4 1.7-3.9 1.7zm0-9.5a3.9 3.9 0 0 0-3.6 2.4 4 4 0 0 0 .9 4.3 4 4 0 0 0 4.2.8 4 4 0 0 0 1.8-1.4 4 4 0 0 0 .3-3.7 4 4 0 0 0-3.6-2.4z" />
    <path fill="#85C241" d="M324.2 130.3a36.7 36.7 0 1 0 0-73.5 36.7 36.7 0 0 0 0 73.5z" />
    <path fill="#242424"
      d="M463.5 104.8a1 1 0 0 1-.6-.3 1 1 0 0 1-.3-.6V70a.8.8 0 0 1 .9-.8c.2 0 .4 0 .6.2l.2.6v34c0 .1 0 .3-.3.5-.1.2-.3.3-.5.3z" />
    <path fill="#242424" d="M463.5 108.7a4.7 4.7 0 1 0 0-9.5 4.7 4.7 0 0 0 0 9.5z" />
    <path fill="#242424"
      d="M463.5 109.5a5.5 5.5 0 0 1-5.2-3.5 5.5 5.5 0 0 1 1.2-6c.8-.8 1.8-1.3 2.9-1.6a5.6 5.6 0 0 1 5.7 2.4 5.5 5.5 0 0 1 .5 5.2 5.6 5.6 0 0 1-5.1 3.4zm0-9.5a3.9 3.9 0 1 0 0 7.8 3.9 3.9 0 0 0 0-7.8z" />
    <path fill="#85C241" d="M463.5 73.5a36.7 36.7 0 1 0 0-73.5 36.7 36.7 0 0 0 0 73.5z" />
    <path fill="#DBDBDB"
      d="M83.7 69.8H12.5c-.2 0-.4 0-.6-.2a.8.8 0 0 1-.2-.6c0-.2 0-.4.2-.6l.6-.3h71.2c.3 0 .5.1.6.3.2.1.3.4.3.6l-.3.6-.6.2zm0 14.2H12.5c-.2 0-.4 0-.6-.2a.8.8 0 0 1-.2-.6c0-.2 0-.4.2-.6.2-.2.4-.2.6-.2h71.2c.3 0 .5 0 .6.2l.3.6-.3.6-.6.2zM67.6 98.3h-55a.8.8 0 0 1-.9-.9l.3-.6.6-.2h55c.2 0 .4 0 .6.2l.2.6c0 .2 0 .4-.2.6l-.6.3zM235 26.7h-71.2c-.2 0-.4 0-.6-.2a.8.8 0 0 1-.2-.6c0-.2 0-.4.2-.6.2-.2.4-.2.6-.2H235c.2 0 .5 0 .6.2l.3.6a.8.8 0 0 1-.9.8zm0 14.3h-71.2a.8.8 0 0 1-.6-1.5c.2-.2.4-.2.6-.2H235c.2 0 .5 0 .6.2a.8.8 0 0 1 0 1.2l-.6.2zm-16.1 14.2h-55c-.2 0-.5-.1-.6-.3a.9.9 0 0 1-.3-.6l.3-.6.6-.2h55c.2 0 .4 0 .6.2l.2.6a.8.8 0 0 1-.8.9zm145.7 150h-71.3a.8.8 0 0 1-.8-.8c0-.3 0-.5.3-.6.1-.2.3-.3.5-.3h71.3c.2 0 .4.1.5.3.2.1.3.3.3.6 0 .2-.1.4-.3.5-.1.2-.3.3-.5.3zm0 14.2h-71.3c-.2 0-.4 0-.5-.2a.8.8 0 0 1-.3-.6c0-.2 0-.4.2-.6.2-.2.4-.2.6-.2h71.3a.8.8 0 0 1 .8.8l-.3.6-.5.2zm-16.2 14.3h-55a1 1 0 0 1-.6-.3.9.9 0 0 1-.2-.6c0-.2 0-.4.2-.6l.6-.2h55c.2 0 .4 0 .6.2l.2.6c0 .2 0 .4-.2.6l-.6.3zM504.7 182h-71.2c-.2 0-.4 0-.6-.2a.9.9 0 0 1-.2-.6c0-.2 0-.5.2-.6l.6-.3h71.2c.2 0 .5.1.6.3.2.1.3.4.3.6l-.3.6-.6.2zm0 14.2h-71.2c-.2 0-.4 0-.6-.2a.8.8 0 0 1 0-1.2c.2-.2.4-.2.6-.2h71.2c.2 0 .5 0 .6.2a.8.8 0 0 1 0 1.2l-.6.2zm-16.1 14.2h-55.1a.8.8 0 0 1-.9-.8l.3-.6.6-.2h55.1c.3 0 .5 0 .6.2l.3.6-.3.6c-.1.2-.3.3-.6.3z" />
    <path
      d="M29.7 164v-2.7l5.2-4.2c2-1.6 2.7-2.5 2.7-3.8 0-1.3-.8-2-2-2-1.3 0-2.1.7-3.3 2l-2.4-1.8c1.6-2.1 3-3.3 5.8-3.3 3.2 0 5.4 2 5.4 4.8 0 2.7-1.3 4-4 6.1l-2.6 2h6.8v3H29.7zm20.3.3c-4.1 0-6.9-3.5-6.9-8 0-4.6 2.8-8.1 7-8.1 4 0 6.9 3.5 6.9 8 0 4.6-2.8 8-7 8zm0-3.1c2.1 0 3.5-2 3.5-5 0-2.8-1.4-5-3.5-5-2 0-3.3 2.2-3.3 5 0 2.9 1.3 5 3.4 5zm11.5 2.8v-12.2l-2.7.7-.8-2.8 4.5-1.4h2.3V164h-3.3zm5.9 0v-2.7l5.2-4.2c2-1.6 2.7-2.5 2.7-3.8 0-1.3-.9-2-2.1-2-1.2 0-2 .7-3.2 2l-2.4-1.8c1.5-2.1 3-3.3 5.8-3.3 3.2 0 5.4 2 5.4 4.8 0 2.7-1.4 4-4.1 6.1l-2.6 2H79v3H67.4zM435.3 44v-2.7l5.2-4.2c2-1.6 2.7-2.5 2.7-3.8 0-1.3-.9-2-2.1-2-1.2 0-2 .7-3.2 2l-2.4-1.8c1.5-2.1 3-3.3 5.8-3.3 3.2 0 5.4 2 5.4 4.8 0 2.7-1.4 4-4.1 6.1l-2.6 2h6.8v3h-11.5zm20.3.3c-4.2 0-6.9-3.5-6.9-8 0-4.6 2.8-8.1 7-8.1 4 0 6.8 3.5 6.8 8s-2.8 8-7 8zm0-3.1c2.1 0 3.4-2 3.4-5 0-2.8-1.4-5-3.4-5s-3.4 2.2-3.4 5c0 2.9 1.4 5 3.4 5zM464 44v-2.7l5.2-4.2c2-1.6 2.7-2.5 2.7-3.8 0-1.3-.8-2-2-2-1.3 0-2.1.7-3.3 2l-2.4-1.8c1.6-2.1 3-3.3 5.8-3.3 3.2 0 5.4 2 5.4 4.8 0 2.7-1.3 4-4 6.1l-2.6 2h6.8v3H464zm20.8 0v-3.3h-7.6l-.6-2.5 8.5-9.9h3V38h2v2.8h-2V44h-3.3zm-4.2-6.1h4.2V33l-4.2 4.9zm-185.3 63.9V99l5.2-4.3c2-1.6 2.7-2.4 2.7-3.7 0-1.3-.9-2-2.1-2-1.2 0-2 .7-3.2 2l-2.4-1.9c1.5-2 3-3.2 5.8-3.2 3.2 0 5.4 1.9 5.4 4.8 0 2.7-1.4 4-4.1 6l-2.6 2h6.8v3h-11.5zm20.3.2c-4.2 0-7-3.4-7-8 0-4.5 2.9-8 7-8s7 3.4 7 8c0 4.5-2.9 8-7 8zm0-3c2 0 3.4-2.1 3.4-5 0-2.8-1.4-5-3.4-5s-3.4 2.1-3.4 5 1.4 5 3.4 5zm8.4 2.8V99l5.2-4.3c2-1.6 2.7-2.4 2.7-3.7 0-1.3-.8-2-2-2-1.3 0-2.1.7-3.3 2l-2.4-1.9c1.6-2 3-3.2 5.8-3.2 3.2 0 5.4 1.9 5.4 4.8 0 2.7-1.3 4-4 6l-2.6 2h6.8v3H324zm20.3.2c-4.1 0-6.9-3.4-6.9-8 0-4.5 2.8-8 7-8 4 0 6.9 3.4 6.9 8 0 4.5-2.8 8-7 8zm0-3c2.1 0 3.5-2.1 3.5-5 0-2.8-1.4-5-3.5-5-2 0-3.3 2.1-3.3 5s1.3 5 3.4 5zm-165.7 32.8V129l5.2-4.3c2-1.6 2.7-2.4 2.7-3.7 0-1.3-.8-2-2-2-1.3 0-2.1.7-3.3 2l-2.4-1.9c1.6-2 3-3.2 5.8-3.2 3.2 0 5.4 1.9 5.4 4.8 0 2.7-1.4 4-4.1 6l-2.5 2h6.7v3h-11.5zm20.4.2c-4.3 0-7-3.4-7-8 0-4.5 2.8-8 7-8 4 0 6.9 3.4 6.9 8 0 4.5-2.8 8-7 8zm0-3c2 0 3.3-2.1 3.3-5 0-2.8-1.3-5-3.4-5-2 0-3.4 2.1-3.4 5s1.4 5 3.5 5zm11.3 2.8v-12.2l-2.7.7-.7-2.8 4.5-1.4h2.3v15.7h-3.3zm11.9.2c-3.4 0-6-1.8-6-4.5 0-2 .9-3 2.5-3.8-1.2-.7-2-1.7-2-3.4 0-2.4 2.2-4.3 5.5-4.3s5.5 1.9 5.5 4.3c0 1.7-.8 2.7-2 3.4 1.6.8 2.5 1.8 2.5 3.7 0 3-2.5 4.6-6 4.6zm0-9.4c1.4 0 2.2-.8 2.2-1.9 0-1-.8-1.9-2.2-1.9-1.4 0-2.2.9-2.2 1.8 0 1.2.9 2 2.2 2zm0 6.6c1.7 0 2.7-.8 2.7-2s-1.1-1.9-2.7-1.9-2.7.7-2.7 2c0 1 1 1.9 2.7 1.9z" />
  </g>
</svg>