<svg xmlns="http://www.w3.org/2000/svg" viewBox="0 0 526.4 389.1"><g class="layer"><path fill="#FBFBFB" d="M137.3 162.4H382c8.6 0 15.6 7 15.6 15.6v130.3c0 8.7-7 15.6-15.6 15.6H137.3c-8.6 0-15.6-7-15.6-15.6V177.9c0-8.5 7-15.5 15.6-15.5z"/><path fill="#101828" d="M382 324.7H137.3c-9 0-16.4-7.3-16.4-16.4V177.9c0-9 7.3-16.5 16.4-16.5H382c9 0 16.4 7.4 16.4 16.5v130.3c0 9.1-7.4 16.6-16.4 16.6v-.1zM137.3 163.3c-8.1 0-14.7 6.6-14.7 14.8v130.3c0 8.2 6.6 14.8 14.7 14.8H382c8.2 0 14.8-6.6 14.8-14.8V177.9c0-8.2-6.6-14.8-14.8-14.8H137.3v.2z"/><path fill="#FBFBFB" d="M216.6 266.2h86c3 0 5.4 2.4 5.4 5.4V307c0 3-2.4 5.4-5.4 5.4h-86c-3 0-5.4-2.4-5.4-5.4v-35.4c0-3 2.4-5.4 5.4-5.4z"/><path fill="#DBDBDB" d="M302.6 313.2h-86a6.2 6.2 0 0 1-6.2-6.2v-35.4c0-3.5 2.8-6.2 6.2-6.2h86c3.4 0 6.2 2.7 6.2 6.2V307c0 3.5-2.8 6.2-6.2 6.2zm-86-46.2c-2.5 0-4.5 2-4.5 4.6V307c0 2.5 2 4.6 4.5 4.6h86c2.5 0 4.5-2 4.5-4.6v-35.4c0-2.5-2-4.6-4.5-4.6h-86z"/><path fill="#FBFBFB" d="M146.3 173.7h226.5c4.8 0 8.6 4 8.6 8.7v62.4c0 4.8-3.8 8.7-8.6 8.7H146.2a8.6 8.6 0 0 1-8.6-8.7v-62.4c0-4.8 4-8.6 8.6-8.6l.1-.1z"/><path fill="#DBDBDB" d="M372.9 254.3H146.2a9.4 9.4 0 0 1-9.5-9.5v-62.4c0-5.2 4.2-9.4 9.5-9.4h226.5c5.2 0 9.4 4.2 9.4 9.4v62.4c.2 5.3-4 9.5-9.3 9.5h.1zm-226.7-79.6a7.8 7.8 0 0 0-7.8 7.8v62.4c0 4.4 3.5 7.8 7.8 7.8h226.5c4.3 0 7.8-3.4 7.8-7.8v-62.4c0-4.3-3.5-7.8-7.8-7.8H146.2z"/><path fill="#FBFBFB" d="M137.3.9H382c8.6 0 15.6 7 15.6 15.6v130.2c0 8.6-7 15.6-15.6 15.6H137.3c-8.6 0-15.6-7-15.6-15.6V16.5c0-8.7 7-15.6 15.6-15.6z"/><path fill="#101828" d="M382 163.2H137.3c-9 0-16.4-7.3-16.4-16.4V16.5c0-9 7.3-16.5 16.4-16.5H382c9 0 16.4 7.4 16.4 16.5v130.4c0 9-7.4 16.3-16.4 16.3zM137.3 1.7c-8.1 0-14.7 6.6-14.7 14.8v130.4c0 8.2 6.6 14.8 14.7 14.8H382c8.2 0 14.8-6.6 14.8-14.8V16.5c0-8.2-6.6-14.8-14.8-14.8H137.3z"/><path fill="#FBFBFB" d="M525.5 24.9H420.2v155.3h105.3V24.9z"/><path fill="#DBDBDB" d="M525.5 181.1H420.2a.8.8 0 0 1-.9-.8V24.9c0-.5.4-.9.9-.9h105.3c.5 0 .9.4.9.9v155.3c0 .4-.4 1-.9 1v-.1zM421 179.4h103.7V25.8H421v153.6z"/><path fill="#DBDBDB" d="M525.5 35.9H420.2a.8.8 0 0 1-.9-.8c0-.5.4-.9.9-.9h105.3c.5 0 .9.4.9.9s-.4.8-.9.8zm-57.8 28.5h-33.5a.8.8 0 0 1-.8-.9V44.8c0-.5.3-.8.8-.8h33.4c.5 0 .8.3.8.8v18.7c0 .5-.5.9-.8.9h.1zM435 62.7h31.7v-17H435v17zm79.6 45.3h-33.4a.8.8 0 0 1-.8-.8V88.5c0-.5.4-.9.8-.9h33.4c.5 0 .8.4.8.9v18.7c0 .4-.3.8-.8.8zm-32.5-1.6h31.7v-17h-31.7v17zm-14.4 10.9h-33.5a.8.8 0 0 1-.8-.9V97.7c0-.5.3-.8.8-.8h33.4c.5 0 .8.3.8.8v18.7c0 .5-.5.9-.8.9h.1zm-32.7-1.7h31.7v-17H435v17zm57.6 50.9h-33.3a.8.8 0 0 1-.9-.9v-18.7c0-.5.4-.8.9-.8h33.3c.5 0 .9.3.9.8v18.8c.1.5-.4.9-.9.9v-.1zm-32.4-1.8h31.7v-17h-31.7v17z"/><path fill="#DBDBDB" d="M497.9 89.3a.8.8 0 0 1-.8-.8v-9.6H451a.8.8 0 0 1-.8-.9V63.7c0-.4.3-.8.8-.8s.8.4.8.8v13.6h46.1c.5 0 .9.4.9.8v10.5c-.2.5-.5.8-.9.8v-.1z"/><path fill="#DBDBDB" d="M450.9 98.7a.8.8 0 0 1-.9-.9V78c0-.4.4-.8.9-.8s.8.4.8.8v19.8c0 .4-.3.9-.8.9zm26.5 48.2a.8.8 0 0 1-.8-.8V134h-25.7a.8.8 0 0 1-.9-.9v-16.4c0-.5.4-.9.9-.9s.8.4.8.9v15.6h25.7c.5 0 .8.3.8.8v13c0 .4-.3 1-.8 1v-.2z"/><path fill="#FBFBFB" d="M95.6 22H27.4v60.7h68.2V21.9v.1z"/><path fill="#DBDBDB" d="M95.6 83.7H27.4a.8.8 0 0 1-.8-.9V22c0-.5.3-.8.8-.8h68.2c.4 0 .8.3.8.8v60.7c0 .4-.4.9-.8.9v.1zM28.2 82h66.5V22.7H28.2V82z"/><path fill="#DBDBDB" d="m49.5 64.7-.6-.2L37 53.9c-.4-.3-.4-.8 0-1.2l11.9-12.5c.3-.3.8-.3 1.2 0 .3.4.3.9 0 1.2l-11.3 12 11.3 9.9c.3.3.3.8.1 1.2l-.7.2zm21.7 0a.8.8 0 0 1-.8-.8c0-.3 0-.5.2-.6l11.3-10-11.3-11.9c-.4-.3-.4-.8 0-1.2.4-.3.8-.3 1.2 0l11.9 12.5.2.6-.2.6-11.9 10.6-.6.2zM52.6 68a.8.8 0 0 1-.8-.9v-.3l15-28.5c.2-.3.7-.6 1-.3.4.2.6.7.4 1L53.3 67.5c-.1.3-.3.5-.7.5zm43-37H27.4a.8.8 0 0 1-.8-.8c0-.5.3-.9.8-.9h68.2c.4 0 .8.4.8.9 0 .4-.4.8-.8.8z"/><path fill="#FBFBFB" d="M105.9 119.2H.9v109.3h105V119.2z"/><path fill="#DBDBDB" d="M105.9 229.2H.9a.8.8 0 0 1-.9-.8V119.1c0-.5.4-.9.9-.9h105c.5 0 .8.4.8.9v109.3c0 .5-.3.8-.8.8zM1.7 227.7H105V119.9H1.7v107.8z"/><path fill="#DBDBDB" d="M105.9 130.8H.9a.8.8 0 0 1-.9-.8c0-.5.4-.8.9-.8h105c.5 0 .8.3.8.8s-.3.8-.8.8zM23 139.6H10.1a.8.8 0 0 1-.8-.8c0-.5.3-.9.8-.9H23c.4 0 .8.4.8.9 0 .3-.4.8-.8.8zm32.2 0H29.7a.8.8 0 0 1-.9-.8c0-.5.4-.9.9-.9h25.5c.5 0 .9.4.9.9 0 .3-.4.8-.9.8zm7.8 9.7H37.4a.8.8 0 0 1-.9-.8c0-.5.4-.9.9-.9h25.5c.5 0 .9.4.9.9 0 .3-.4.8-.8.8zm-37 0H13.1a.8.8 0 0 1-.8-.8c0-.5.3-.9.8-.9H26c.4 0 .8.4.8.9 0 .3-.4.8-.8.8zm.4 9.7H16.2a.8.8 0 0 1-.8-.8c0-.5.3-.8.8-.8h10.3c.5 0 .9.3.9.8s-.4.8-.9.8h-.1zm41.2 0h-32a.8.8 0 0 1-.9-.8c0-.5.4-.8.9-.8h32c.5 0 .8.3.8.8s-.3.8-.8.8zM32 168.7H19.1a.8.8 0 0 1-.8-.8c0-.5.3-.8.8-.8H32c.4 0 .8.3.8.8s-.4.9-.8.9v-.1zm42.2 0h-38a.8.8 0 0 1-.9-.8c0-.5.4-.8.9-.8h38c.5 0 .8.3.8.8s-.3.9-.8.9v-.1zm-45.6 9.8H15.8a.8.8 0 0 1-.9-.9c0-.4.4-.8.9-.8h12.8c.5 0 .8.4.8.8 0 .5-.3.9-.8.9zm25.6 0H33.5a.8.8 0 0 1-.8-.9c0-.4.3-.8.8-.8h20.7c.4 0 .8.4.8.8 0 .5-.4.9-.8.9zm28.5 0H62a.8.8 0 0 1-.9-.9c0-.4.4-.8.9-.8h20.6c.5 0 .8.4.8.8.2.5-.2.9-.7.9zm-62.5 9.7h-4.4a.8.8 0 0 1-.9-.8c0-.5.4-.9.9-.9h4.4c.5 0 .8.4.8.9 0 .4-.3.8-.8.8zm34 0H27.8a.8.8 0 0 1-.9-.8c0-.5.4-.9.9-.9h26.4c.4 0 .8.4.8.9 0 .4-.4.8-.8.8zm10.3 0h-7.3a.8.8 0 0 1-.9-.8c0-.5.4-.9.9-.9h7.3c.5 0 .8.4.8.9.1.4-.3.8-.8.8.1 0 .1 0 0 0zm-41.8 9.7h-7a.8.8 0 0 1-.8-.8c0-.5.4-.9.9-.9h7c.4 0 .8.4.8.9s-.4.8-.9.8zm37.9 0H29.2a.8.8 0 0 1-.8-.8c0-.5.3-.9.8-.9h31.4c.5 0 .9.4.9.9s-.4.8-.9.8zm15.9 0H63.8a.8.8 0 0 1-.9-.8c0-.5.4-.9.9-.9h12.8c.5 0 .8.4.8.9s-.4.8-1 .8h.1zm-57 9.8h-6.9a.8.8 0 0 1-.8-1c0-.4.4-.7.8-.7h6.9c.5 0 .8.3.8.8s-.3.8-.8.8v.1zm37.7 0H27.4a.8.8 0 0 1-.8-1c0-.4.3-.7.8-.7h29.8c.4 0 .8.3.8.8s-.4.8-.8.8v.1zm-31.6 9.7H12.8a.8.8 0 0 1-.9-.9c0-.5.4-.8.9-.8h12.8c.5 0 .8.3.8.8s-.3.9-.8.9zm71-48.7H79.4a.8.8 0 0 1-.9-.8c0-.5.4-.8.9-.8h17.2c.5 0 .9.3.9.8s-.4.9-.9.9v-.1zm-25.9-29.1-9-.1c-.5-.1-.7-.6-.6-1 .1-.3.6-.7 1-.6H91c.5 0 .8.4.8.9 0 .4-.3.8-.8.8H70.7zm2.9 68.1h-13a.8.8 0 0 1-.8-1c0-.4.4-.7.8-.7h13c.5 0 .8.3.8.8s-.3.8-.8.8v.1zm-29.8 9.7h-9.6a.8.8 0 0 1-.8-.9c0-.5.4-.8.8-.8h9.6c.5 0 .9.3.9.8s-.4.9-.9.9zm26.4 0H47.3a.8.8 0 0 1-.8-.9c0-.5.4-.8.8-.8h22.9c.5 0 .9.3.9.8s-.4.9-.9.9z"/><path fill="#FBFBFB" d="M468.4 284.2a42.4 42.4 0 1 0 0-84.7 42.4 42.4 0 0 0 0 84.7z"/><path fill="#101828" d="M468.4 285a43.2 43.2 0 1 1 0-86.3 43.2 43.2 0 0 1 0 86.3zm0-84.7a41.5 41.5 0 1 0 0 83 41.5 41.5 0 0 0 0-83z"/><path fill="#FBFBFB" d="M487.2 272.7a4 4 0 0 1-5.8-1.5l-5.2-8.7c-1.2-2-.5-4.6 1.6-5.8a4 4 0 0 1 5.7 1.6l5.2 8.7c1 2 .3 4.6-1.6 5.8l.1-.1z"/><path fill="#101828" d="M485 274.2h-1.4a4.9 4.9 0 0 1-3-2.4l-5-8.8a5 5 0 0 1 1.8-6.9 5 5 0 0 1 6.8 1.8l5.2 8.8a5 5 0 0 1-1.8 6.8c-.8.5-1.7.7-2.6.7zm-5-17.1c-.7 0-1.3 0-1.8.5-1.5 1-2.1 3-1.2 4.5l5 8.8c1 1.5 3.2 1.9 4.6 1 1.5-1 2-2.8 1.2-4.4l-5-8.7a3.8 3.8 0 0 0-2-1.6l-.9-.1h.1z"/><path fill="#FBFBFB" d="M468.4 267.4a26.6 26.6 0 1 0 0-53.3 26.6 26.6 0 0 0 0 53.3z"/><path fill="#101828" d="M468.5 268.1a28 28 0 0 1-23.7-13.7 27.4 27.4 0 1 1 23.7 13.7zm-.1-53.1a25.7 25.7 0 0 0-22.2 38.6 25.7 25.7 0 1 0 22.2-38.6z"/><path fill="#101828" d="M468.4 262.6a21.8 21.8 0 1 0 0-43.7 21.8 21.8 0 0 0 0 43.7z"/><path fill="#85C241" d="M386.1 14.6H135.4v134.8h250.7V14.6z"/><path fill="#101828" d="M386.1 150.3H135.4a.8.8 0 0 1-.8-.9V14.7c0-.5.3-.9.8-.9h250.7c.5 0 .8.4.8.9v134.8c0 .5-.3.9-.8.9v-.1zm-249.9-1.7h249V15.4h-249v133.2z"/><path fill="#101828" d="M386.1 31.7H135.4a.8.8 0 0 1-.8-.8c0-.5.3-.9.8-.9h250.7c.5 0 .8.4.8.9s-.3.8-.8.8zM145 25.2a2.8 2.8 0 1 0 0-5.5 2.8 2.8 0 0 0 0 5.5z"/><path fill="#101828" d="M145 26.1c-2 0-3.6-1.6-3.6-3.6s1.6-3.6 3.6-3.6 3.6 1.5 3.6 3.6c0 2-1.6 3.6-3.6 3.6zm0-5.5c-1 0-2 .8-2 1.9 0 1 1 1.9 2 1.9s2-.8 2-2c0-1-1-1.8-2-1.8zm12.6 4.6a2.8 2.8 0 1 0 0-5.5 2.8 2.8 0 0 0 0 5.5z"/><path fill="#101828" d="M157.6 26.1c-2 0-3.6-1.6-3.6-3.6s1.6-3.6 3.6-3.6 3.6 1.5 3.6 3.6c0 2-1.6 3.6-3.6 3.6zm0-5.5c-1 0-2 .8-2 1.9 0 1 1 1.9 2 1.9s2-.8 2-2c0-1-1-1.8-2-1.8zm12.6 4.6a2.8 2.8 0 1 0 0-5.5 2.8 2.8 0 0 0 0 5.5z"/><path fill="#101828" d="M170.2 26.1c-2 0-3.6-1.6-3.6-3.6s1.6-3.6 3.6-3.6 3.6 1.5 3.6 3.6c0 2-1.7 3.6-3.6 3.6zm0-5.5c-1 0-2 .8-2 1.9 0 1 1 1.9 2 1.9s2-.8 2-2c0-1-1-1.8-2-1.8zm-15.4 129.7a.8.8 0 0 1-.8-.9V30.9c0-.5.4-.9.8-.9.5 0 .9.4.9.9v118.5c0 .5-.4.9-.9.9z"/><path fill="#FBFBFB" d="M200.9 40.4h-35.4a.8.8 0 0 1-.8-.9c0-.5.3-.8.8-.8h35.3c.5 0 .8.3.8.8s-.3.9-.7.9z"/><path fill="#101828" d="M221.1 40.4h-11.5a.8.8 0 0 1-.9-.9c0-.5.4-.8.9-.8h11.5c.5 0 .8.3.8.8s-.3.9-.8.9zm31.3 0H228a.8.8 0 0 1-.8-.9c0-.5.4-.8.8-.8h24.4c.5 0 .8.3.8.8s-.3.9-.8.9z"/><path fill="#FBFBFB" d="M189.6 51h-24a.8.8 0 0 1-1-.8c0-.5.4-.8 1-.8h24c.5 0 .9.3.9.8s-.5.8-.9.8z"/><path fill="#101828" d="M296.3 51h-99.5a.8.8 0 0 1-.8-.8c0-.5.4-.8.8-.8h99.5c.5 0 .9.3.9.8s-.4.8-.9.8z"/><path fill="#FBFBFB" d="M352.5 51H304a.8.8 0 0 1-.8-.8c0-.5.3-.8.8-.8h48.5c.5 0 .8.3.8.8s-.3.8-.8.8zM252.4 61.1h-86.9a.8.8 0 0 1-.8-.8c0-.5.3-.9.8-.9h86.9c.5 0 .8.4.8.9s-.3.8-.8.8z"/><path fill="#101828" d="M289.8 61.1H260a.8.8 0 0 1-.9-.8c0-.5.4-.9.9-.9h29.8c.5 0 .9.4.9.9s-.5.8-.9.8z"/><path fill="#FBFBFB" d="M177.5 79.5h-12a.8.8 0 0 1-.8-.9c0-.4.3-.8.8-.8h12c.5 0 .9.4.9.8 0 .5-.4.9-.9.9z"/><path fill="#101828" d="M215.3 79.5h-30.5a.8.8 0 0 1-.8-.9c0-.4.4-.8.8-.8h30.5c.5 0 .9.4.9.8 0 .5-.4.9-.9.9z"/><path fill="#FBFBFB" d="M191.2 89h-25.7a.8.8 0 0 1-.8-.9c0-.5.3-.8.8-.8h25.7c.5 0 .8.3.8.8s-.3.9-.8.9z"/><path fill="#101828" d="M246.6 89H197a.8.8 0 0 1-.9-.9c0-.5.4-.8.9-.8h49.6c.5 0 .9.3.9.8s-.4.9-.9.9z"/><path fill="#FBFBFB" d="M280.6 89h-26.9a.8.8 0 0 1-.8-.9c0-.5.3-.8.8-.8h26.9c.5 0 .8.3.8.8s-.4.9-.8.9zM202 99h-36.5a.8.8 0 0 1-.8-.8c0-.5.3-.8.8-.8H202c.5 0 .8.3.8.8s-.3.8-.8.8z"/><path fill="#101828" d="M270.4 99h-60.8a.8.8 0 0 1-.9-.8c0-.5.4-.8.9-.8h60.8c.5 0 .8.3.8.8s-.3.8-.8.8z"/><path fill="#FBFBFB" d="M328.2 99h-49a.8.8 0 0 1-.9-.8c0-.5.4-.8.9-.8h49c.5 0 .9.3.9.8s-.4.8-.9.8zM202 117.2h-36.5a.8.8 0 0 1-.8-.9c0-.5.3-.8.8-.8H202c.5 0 .8.3.8.8 0 .4-.3.9-.8.9z"/><path fill="#101828" d="M221.8 117.2H209a.8.8 0 0 1-.9-.9c0-.5.4-.8.9-.8h12.8c.5 0 .8.3.8.8 0 .4-.3.9-.8.9zm31.9 0H228a.8.8 0 0 1-.8-.9c0-.5.4-.8.8-.8h25.7c.5 0 .9.3.9.8 0 .4-.5.9-.9.9z"/><path fill="#FBFBFB" d="M189.6 126.5h-24a.8.8 0 0 1-1-.8c0-.5.4-.9 1-.9h24c.5 0 .9.4.9.9s-.5.8-.9.8z"/><path fill="#101828" d="M296.3 126.5H195.9a.8.8 0 0 1-.9-.8c0-.5.4-.9.9-.9h100.3c.5 0 .9.4.9.9s-.4.8-.9.8h.1zm59.3 0H304a.8.8 0 0 1-.8-.8c0-.5.3-.9.8-.9h51.6c.5 0 .8.4.8.9s-.3.8-.8.8z"/><path fill="#FBFBFB" d="M252.4 137.1h-88.8a.8.8 0 0 1-.8-.9c0-.4.3-.8.8-.8h88.8c.5 0 .8.4.8.8 0 .5-.3.9-.8.9z"/><path fill="#101828" d="M287.2 137.1H260a.8.8 0 0 1-.9-.9c0-.4.4-.8.9-.8h27.2c.5 0 .8.4.8.8 0 .5-.3.9-.8.9z"/><path fill="#FBFBFB" d="M144.2 43a2.8 2.8 0 1 0 0-5.5 2.8 2.8 0 0 0 0 5.5zm0 10a2.8 2.8 0 1 0 0-5.6 2.8 2.8 0 0 0 0 5.6zm0 9.9a2.8 2.8 0 1 0 0-5.5 2.8 2.8 0 0 0 0 5.5zm0 18.8a2.8 2.8 0 1 0 0-5.6 2.8 2.8 0 0 0 0 5.5v.1zm0 9.9a2.8 2.8 0 1 0 0-5.5 2.8 2.8 0 0 0 0 5.5zm0 10a2.8 2.8 0 1 0 0-5.6 2.8 2.8 0 0 0 0 5.6zm0 17.5a2.8 2.8 0 1 0 0-5.5 2.8 2.8 0 0 0 0 5.5zm0 9.9a2.8 2.8 0 1 0 0-5.5 2.8 2.8 0 0 0 0 5.5zm0 10a2.8 2.8 0 1 0 0-5.5 2.8 2.8 0 0 0 0 5.5zm-2.4 197.2h57.4c1.6-3.8 3.4-7.5 5.6-11 9-13 21.7-21 28.5-39.2 6.9-18.2 9.1-32.8 3.9-35.4-5.3-2.6-11.8 18.6-18.8 24 0 0-5.1-25.7-1-37 4-11.5 12.7-20 11.5-27-1.2-7-4.3-5-9.5-.7-2.6 2.3-7 9.6-7 9.6A26 26 0 0 1 216 209c5.2-7.7-7-11.2-16.2 2.5 0 0 3.6-14.2-3.3-10-7 4.2-14 20.3-14 20.3s3.9-21.4-4.9-15.6c-8.7 5.8-12 33.1-10.9 45.4 1.1 12.2 3.7 40.5-4 50.6a905.8 905.8 0 0 0-21 34h.1z"/><path fill="#101828" d="M199.2 336.9h-57.6c-.3 0-.6-.1-.7-.5a1 1 0 0 1 0-.8 645.4 645.4 0 0 1 21-33.9c7.7-10 5-39.1 3.9-50-1.2-12.9 2.1-40.2 11.2-46.1 2-1.2 3.5-1.4 4.7-.6 2.5 1.7 2.5 7.4 2.2 11.9a45.3 45.3 0 0 1 12-16.1c1.7-1 3.1-1.2 4-.5 1.7 1.2 1.6 4.8 1.3 7.7 4.4-5.2 9-7 12.2-6.7 1.7 0 3.2 1 4 2.4.8 1.5.6 3.6-.9 5.6a20 20 0 0 0-2.6 5.9 33 33 0 0 1 4.8-6c3.5-3 6-4.7 7.9-3.8 1.4.4 2.3 2.1 2.9 5.1.7 4.3-2 9.1-5.3 14.8-2.4 4-4.6 8.1-6.2 12.5-3.5 9.4-.3 29.6.7 35.1 2.5-2.5 4.9-7 7.3-11.4 4-7.3 7.4-13.5 11.2-11.6 7.8 4 .2 26.7-3.4 36.5a81 81 0 0 1-18.5 27.2c-3.7 3.8-7 8-10.2 12.1a72 72 0 0 0-5.5 10.7c.2.4-.1.5-.5.5h.1zm-56-1.7h55.4c1.6-3.6 3.4-7.2 5.4-10.6 3.3-4.3 6.6-8.4 10.4-12.3 6.7-7.3 13.6-15 18-26.8 7.2-19 8.8-32.1 4.3-34.3-2.3-1.2-5.9 5.3-8.9 11-2.9 5.2-5.8 10.6-8.9 13-.2.1-.6.2-.8.1-.3-.1-.5-.3-.5-.6-.2-1-5.2-26-1-37.5 1.8-4.5 4-8.8 6.5-12.9 3.1-5.3 5.8-9.8 5.2-13.5-.4-2.2-1-3.5-1.8-3.9-1.3-.5-3.9 1.5-6.3 3.6-2.4 2.2-6.8 9.4-7 9.5-.2.4-.6.6-1 .4-.4-.2-.5-.5-.5-.9a26 26 0 0 1 3.9-11c1-1.5 1.3-3 .8-3.9a3 3 0 0 0-2.8-1.4c-3-.2-8.4 2-13 9-.2.4-.6.5-1 .2a.8.8 0 0 1-.5-1c.9-3.2 1.5-8.4.1-9.4-.4-.4-1.5.1-2.1.5-6.6 4-13.6 19.8-13.7 19.9-.1.4-.6.6-1 .5-.3-.1-.7-.5-.6-1 1-5.1 1.6-14-.7-15.3-.6-.4-1.5-.3-2.9.6-8.1 5.2-11.7 32-10.5 44.5 1 12 3.8 40.7-4.2 51.2-2.3 2.9-9.1 13.7-20.3 32.3z"/><path fill="#FBFBFB" d="M302.1 235.5c-3.6-2.5-7.7 6-5 18.8a135.2 135.2 0 0 0 29.3 50.8c3.2 2.9 7.7 12.7 12.9 25.5h55.8c-13.7-25.9-25.5-48-26.5-49.4-2.6-3.6-5.3-26.2-4.6-39.4.6-12-.4-24.2-2.6-36-1.8-8-4.7-10.5-8.6-10.5-3.8 0-1.9 15.6-1.9 15.6-1.8-9.4-7.9-20-13.2-21.1-5.3-1.1 1.2 18.6 1.2 18.6-2.1-5.8-13.8-24.2-19-21.2-1.7 1-6 2.2.8 14.8 6.8 12.6 6.6 19.3 6.6 19.3-14.2-24.2-25.2-23.4-28.7-18.2-3.5 5.1 5.5 8.1 12.7 19 7.2 10.7 3 37.9 3 37.9-7.7-5.2-8.7-22-12.2-24.5zm49-23v-.8.9-.1z"/><path fill="#101828" d="M395.1 331.5h-55.9a.8.8 0 0 1-.7-.5c-5.8-14.3-10-22.8-12.6-25.3-11.4-11-27-37.8-29.8-51.3-2-10.2 0-17.7 3-19.8 1-.7 2.4-.7 3.4.2 1.6 1.2 2.6 4.5 4 8.7 1.5 5.2 3.4 11.5 7 14.8.7-5.8 2.9-27-3.1-36a50.5 50.5 0 0 0-8.5-9.7c-3.9-3.8-6.8-6.5-4.2-10.1a7.7 7.7 0 0 1 6.8-3.3c3.7.2 11.4 2.8 21.1 18.2a63 63 0 0 0-6-15.2c-3.2-6-4.4-10-3.6-12.7a5.2 5.2 0 0 1 2.8-3l.2-.1c1.1-.5 2.3-.6 3.3-.1 4.2 1.5 9.6 8.6 13.2 14.5-1.1-4.6-1.8-9.6-.3-11.4.6-.6 1.5-.8 2.2-.7 4.4.8 9 7.3 11.7 14.5 0-3.4.4-6.7 1.6-8.2.5-.4 1-.8 1.8-.8 4.8 0 7.7 3.5 9.4 11.2 2.4 12 3.2 24.2 2.6 36.4-.7 13.5 2 35.7 4.3 39 1 1.2 9.6 17.4 26.5 49.5.3.3 0 1-.3 1 .1 0 0 .2 0 .2h.1zm-55.2-1.7h53.9a1626.3 1626.3 0 0 0-25.8-48.1c-2.8-3.9-5.4-26.5-4.7-39.9.6-12-.4-24-2.7-36-1.9-8.6-5-9.8-7.8-9.8l-.4.2c-1.6 1.8-1.2 9.9-.8 14.4v.5c.2.1.2.3.2.4v1.1s.2 0 .2.2l.1 1 .1.3v.3c0 .4-.3.8-.7.8a.7.7 0 0 1-.8-.4h-.1v-.7l-.2-.2v-1c-.2-.1-.2-.2-.2-.3l-.1-.9v-.3l-.1-.3v-.2c-1.8-9.6-8-19.6-12.6-20.4h-.6c-1.6 1.8.7 11.3 2.7 17.5.1.5-.1 1-.5 1-.4.2-1 0-1-.4-2-5-10.6-18.7-16-20.6-.6-.3-1.3-.3-2 0h-.3c-1 .4-1.5 1.2-1.9 2-.6 2.2.5 6 3.5 11.4 6.8 12.6 6.7 19.6 6.7 19.8 0 .5-.4.8-.8.8-.3 0-.6 0-.8-.3-10.3-17.8-18-20.7-21.8-20.8-2.2-.2-4.2.7-5.4 2.5-1.7 2.3 0 4.1 4 8a54 54 0 0 1 8.7 10c7.2 11 3.4 37.5 3.1 38.6 0 .4-.4.7-1 .7l-.3-.1c-4.8-3.3-7-10.6-8.9-16.6-1-3.6-2.1-7-3.3-8-.5-.3-1.1-.3-1.5 0-2.1 1.4-4.3 8.1-2.2 18 2.6 13 18 39.8 29.2 50.5 2.8 2.7 7 11 12.9 25.3z"/><path fill="#85C241" d="M211.2 330.7c-1.3 0-62.8-21-62.8-21s-28 50.6-36.5 66.4l81 13 18.3-58.5v.1zM388 306.2l-64.8 12 17.5 62.7 82.2-6.2-34.9-68.5z"/></g></svg>