<svg xmlns="http://www.w3.org/2000/svg" xml:space="preserve" viewBox="0 0 1044.2 163.6"><path fill="#273440" d="M221.4 136.9c-7 .3-12.8.5-17.3.5a31 31 0 0 1-13.9-2.6 14.2 14.2 0 0 1-7-9c-.5-1.7-1-3.7-1.3-6.1H215c12.3 0 21-2.2 26.1-6.7 5-4.5 7.6-11.3 7.4-20.5-.1-11.5-4-20.2-11.5-26-7.5-5.8-20-8.7-37.4-8.7a79 79 0 0 0-30.9 5 32 32 0 0 0-17 16.7 77.3 77.3 0 0 0-5.3 31.5 72 72 0 0 0 5.2 29.5 34.1 34.1 0 0 0 17.2 17.3c8 3.7 18.5 5.6 31.6 5.6 5.1 0 10.4-.3 15.8-.7 5.4-.5 10.7-1.3 15.8-2.5 5-1.1 9.7-2.7 13.9-4.7l-3-20.6c-7.4 1-14.6 1.6-21.6 2zm-38.5-46.6c1.2-4 3.1-6.6 5.9-8 2.8-1.3 6.7-2 11.9-2 5.7 0 9.7.8 12 2.4 2.4 1.7 3.7 4.6 3.8 9 0 3.5-.6 6.1-1.9 7.8-1.3 1.7-4.2 2.5-8.8 2.5h-24.5c.2-5 .8-8.8 1.6-11.7zm187.4-4.7v75.3H337V96c0-3.7-.7-6.4-2.2-7.9-1.4-1.5-4-2.2-7.6-2.2-4 0-8 .7-12.3 2a114 114 0 0 0-12.3 4.9v68.2h-33.3V60.4H296l3 15.1c6.6-5.7 13.5-10 20.5-13a56.3 56.3 0 0 1 22-4.7c19.3 0 28.9 9.2 28.9 27.8zm75-67.5c7 0 14.7.4 23 1.2a117 117 0 0 1 24.5 4.7l-2 22.8c-6.2-.3-13.3-.5-21.6-.6a1548.3 1548.3 0 0 0-24.4-.2c-3.4 0-6.3.1-8.7.4-2.4.3-4.4.7-5.8 1.4a6 6 0 0 0-3 3.4c-.7 1.5-1 3.6-1 6.1 0 4 1 7 3.2 8.9 2 2 5.8 3.8 11 5.6L467 81c11.3 4 19.2 9.4 23.6 15.9 4.4 6.5 6.6 15 6.6 25.5 0 7.9-.9 14.5-2.7 19.9a25.1 25.1 0 0 1-9 12.5c-4.2 3-9.8 5.3-16.6 6.6-6.8 1.4-15.2 2-25 2a197.8 197.8 0 0 1-50.2-5.7l2-24.3a1263.7 1263.7 0 0 1 37 1h11c5 0 9-.3 11.7-.9 2.7-.6 4.6-1.7 5.8-3.3 1.1-1.7 1.7-4 1.7-7.1 0-2.9-.4-5.2-1.2-6.8-.8-1.7-2.1-3.1-4-4.2-1.8-1-4.3-2.1-7.4-3l-28.2-10.4a49.2 49.2 0 0 1-23.3-15.9 42.5 42.5 0 0 1-6.8-25.1c0-8 1-14.6 3-19.8 2.1-5.3 5.2-9.3 9.4-12.1s9.7-4.9 16.4-6c6.7-1.2 14.8-1.8 24.4-1.8zM589.5 137c-7 .3-12.8.5-17.2.5a31 31 0 0 1-14-2.6 14.2 14.2 0 0 1-7-9c-.5-1.7-1-3.7-1.3-6.1h33.2c12.4 0 21-2.2 26.1-6.7 5.1-4.5 7.6-11.3 7.5-20.5-.2-11.5-4-20.2-11.5-26-7.5-5.8-20-8.7-37.5-8.7a79 79 0 0 0-30.9 5 32 32 0 0 0-17 16.7 77.2 77.2 0 0 0-5.3 31.5 72 72 0 0 0 5.3 29.5 34 34 0 0 0 17.1 17.3 75 75 0 0 0 31.6 5.6c5.2 0 10.4-.3 15.9-.7 5.4-.5 10.6-1.3 15.7-2.5s9.7-2.7 14-4.7l-3.1-20.6c-7.3 1-14.5 1.6-21.6 2zm-38.4-46.6c1.1-4 3-6.6 5.8-8 2.8-1.3 6.8-2 12-2 5.6 0 9.6.8 12 2.4 2.4 1.7 3.6 4.6 3.8 9 0 3.5-.7 6.1-2 7.8-1.2 1.7-4.2 2.5-8.8 2.5h-24.5c.3-5 .8-8.8 1.7-11.7zm161.3-32.5-3 30.4h-9c-4.3 0-9 .6-14 1.6-4.2 1-9.4 2.4-15.6 4.3v66.8h-33.3V60.4h26l3 15c6.5-5.6 13-10 19.7-12.9a51.5 51.5 0 0 1 21-4.7h5.2zM833 60.4 800.7 153a10.9 10.9 0 0 1-10.8 8h-28.6c-2.6 0-4.8-.8-6.7-2.2a11.6 11.6 0 0 1-4-5.8l-32.4-92.6h35.1l17 61 2 9.2 2 9h2.6a1020 1020 0 0 0 4-18.3l16.7-61H833zm64.6-2.6c17.4 0 30 2.9 37.4 8.7 7.5 5.8 11.4 14.5 11.5 26 .1 9.2-2.3 16-7.4 20.5-5 4.5-13.8 6.7-26.1 6.7H857V102h46.5c4.6 0 7.6-.8 8.9-2.5 1.3-1.7 2-4.3 2-7.8-.2-4.4-1.5-7.3-3.8-9-2.4-1.6-6.4-2.4-12.1-2.4-5.2 0-9.1.7-12 2-2.7 1.4-4.7 4-5.8 8-1.2 3.9-1.7 9.7-1.7 17.4 0 7.9.6 14 2 18.2 1.4 4.3 3.7 7.2 7 9a31 31 0 0 0 14 2.5c4.4 0 10.1-.2 17.2-.5a265.8 265.8 0 0 0 21.5-2l3 20.5c-4.1 2-8.8 3.7-13.8 4.8a118 118 0 0 1-15.8 2.5c-5.4.4-10.7.7-15.8.7a75 75 0 0 1-31.6-5.6c-8-3.7-13.7-9.5-17.2-17.3a72 72 0 0 1-5.3-29.5c0-13.3 1.8-23.8 5.3-31.5a32 32 0 0 1 17-16.7 79 79 0 0 1 31-5zm95.6 2.6 4 19.9 3.3 2.8V161h-33.3V60.4h26zm49-2.6-3 30.4h-9c-4.3 0-9 .6-14 1.6-5 1.1-11.4 2.9-19.1 5.3l-2.3-18.5c7-6.2 14-10.9 21.2-14a51.4 51.4 0 0 1 20.9-4.8h5.3z"/><path fill="#3c7ab5" d="m65 113.5 7 14.8-15.5 32.6h-14zm-5.8-92.7 12.9 28-7 15.2-20-43.2zM115.4 89l36.6 72h-14l-1.5-3.2-35-68.8 44-89h14z"/><path fill="#273440" d="m93.7 89 36.5 72h-35L65.9 99v-.1h-1.6l-29.5 62H0l36.6-71.8L2.9 20.7h34.5L64 78.5h2L102.5 0h35.2l-44 89zm928.4 56v3.3h-14.4v-3.4h14.4zm-5 0v16h-4.4v-16h4.4zm25 0c1 0 1.5.5 1.5 1.5l.6 14.4h-4l-.6-12.7h-.3l-2.4 9c-.2 1-.8 1.4-1.7 1.4h-2.6c-1 0-1.5-.5-1.7-1.4l-2.4-9h-.4l-.5 12.7h-4l.6-14.4c0-1 .6-1.6 1.5-1.6h4c.5 0 .9.2 1.1.4s.5.5.6 1l2 7.2.1 1.2.2 1.1h.3l.3-1.2.2-1.1 1.8-7.2c.2-1 .7-1.4 1.7-1.4h4z"/></svg>